<?xml version="1.0" encoding="UTF-8"?>
<!DOCTYPE svg PUBLIC "-//W3C//DTD SVG 1.1//EN" "http://www.w3.org/Graphics/SVG/1.1/DTD/svg11.dtd">
<!-- Creator: CorelDRAW -->
<svg xmlns="http://www.w3.org/2000/svg" xml:space="preserve" width="162.56mm" height="91.44mm" version="1.1" style="shape-rendering:geometricPrecision; text-rendering:geometricPrecision; image-rendering:optimizeQuality; fill-rule:evenodd; clip-rule:evenodd"
viewBox="0 0 16256 9144"
 xmlns:xlink="http://www.w3.org/1999/xlink"
 xmlns:xodm="http://www.corel.com/coreldraw/odm/2003">
 <defs>
  <style type="text/css">
   <![CDATA[
    .fil0 {fill:url(#id0);fill-rule:nonzero}
    .fil1 {fill:url(#id1);fill-rule:nonzero}
   ]]>
  </style>
  <linearGradient id="id0" gradientUnits="userSpaceOnUse" x1="12518.49" y1="5471.27" x2="3675.33" y2="2615.86">
   <stop offset="0" style="stop-opacity:1; stop-color:#1D2D8C"/>
   <stop offset="1" style="stop-opacity:1; stop-color:#06AFF2"/>
  </linearGradient>
  <linearGradient id="id1" gradientUnits="userSpaceOnUse" x1="6946.61" y1="93.36" x2="12609.62" y2="2297.23">
   <stop offset="0" style="stop-opacity:1; stop-color:#1D2D8C"/>
   <stop offset="1" style="stop-opacity:1; stop-color:#0583F2"/>
  </linearGradient>
 </defs>
 <g id="Layer_x0020_1">
  <metadata id="CorelCorpID_0Corel-Layer"/>
  <g id="_1130068396144">
   <path class="fil0" d="M12493.37 5422.74l-38.74 -90.4c0,-12.94 0,-25.85 0,-38.76l0 0c0,0 0,0 0,0l-38.75 -116.23 0 0c0,0 0,0 0,0l-12.91 -25.84c-25.83,-51.65 -51.67,-103.32 -77.5,-154.99l-12.91 -12.91c-38.76,-77.49 -77.49,-154.99 -116.23,-232.48l-12.93 -25.82c-12.91,-12.92 -25.83,-25.83 -38.74,-38.74l0 0c-12.91,-12.93 -25.82,-25.84 -38.75,-38.76l0 0c-12.92,-25.82 -25.83,-51.66 -38.74,-77.49l-12.91 -12.91c0,0 0,0 0,0 -12.91,-12.91 -25.85,-25.82 -38.76,-38.76l0 0c0,-12.91 0,-25.82 0,-38.73l-25.82 -25.83c-12.91,-12.93 -25.83,-25.84 -38.76,-38.75 -38.74,-38.74 -77.49,-77.5 -116.23,-116.23l0 0c-12.91,-12.92 -25.82,-25.85 -38.73,-38.76l0 0c-12.94,-12.91 -25.85,-12.91 -38.76,-12.91l-25.83 -25.83c0,0 0,0 0,0l0 0c-12.91,-12.91 -25.84,-25.84 -38.75,-38.75 -25.83,-25.83 -51.65,-38.74 -64.58,-51.65l0 0c-51.65,-38.76 -103.32,-77.49 -154.97,-116.25l-12.93 -12.91c-25.82,-12.91 -51.65,-25.83 -77.49,-38.74l0 0c-25.83,-12.93 -51.65,-25.84 -77.5,-38.76l-64.56 -38.73 0 0c-38.75,-25.85 -77.49,-51.67 -116.25,-77.49l0 0c-25.82,-12.94 -51.64,-25.85 -77.49,-38.76l0 0c-12.91,0 -25.82,0 -38.73,0l0 0c-38.76,-12.91 -77.5,-25.82 -116.25,-38.74l-12.92 0c-25.82,-12.93 -51.66,-25.84 -77.49,-38.75l-12.91 0c-51.67,-12.92 -103.32,-25.83 -154.99,-38.74l-12.91 0c-25.82,-12.93 -51.67,-25.84 -77.49,-38.76l0 0c-12.91,0 -25.82,0 -38.76,0l-25.82 -12.91 -12.91 0c-25.83,-12.91 -51.67,-25.82 -77.5,-25.82l-12.91 0c-25.84,0 -51.67,0 -77.49,0l-38.76 0c-25.82,0 -51.65,0 -77.49,0l-12.91 0c-12.91,0 -25.83,0 -38.74,0l0 0c-25.84,0 -51.67,0 -77.49,0l0 0c0,0 0,0 0,0 -12.91,0 -25.85,0 -38.76,0l-12.91 0c-12.91,0 -25.82,0 -38.74,0 -25.84,0 -51.67,0 -77.49,0l-25.84 0c-12.92,0 -25.83,0 -38.74,0l-12.91 0c-12.91,0 -25.85,0 -38.76,0l-3345.06 0c-309.97,0 -568.29,-258.33 -568.29,-568.28 0,-309.97 258.32,-568.27 568.29,-568.27l1640.24 0 -2156.86 -2156.86 -90.41 25.82c-64.58,12.91 -129.16,25.82 -193.72,51.67 -439.13,129.14 -839.51,374.53 -1162.39,697.41 -322.89,322.89 -568.28,723.26 -697.44,1162.39 -77.49,258.31 -116.23,529.52 -116.23,800.76 0,271.21 38.74,542.45 116.23,800.75 129.16,439.11 374.55,839.49 697.44,1162.37 322.88,322.88 723.26,568.27 1162.39,697.43 258.3,77.5 529.52,116.23 800.75,116.23l3345.06 0c309.97,0 568.27,258.33 568.27,568.28 0,309.97 -259.05,589.12 -568.27,568.29l-5814.42 -391.46 -73.61 646.76 5555.17 1786.94c577.84,185.85 1520.37,-41.44 1998.95,-402 464.14,-349.66 813.66,-852.42 981.56,-1407.78 77.49,-258.3 116.25,-529.52 116.25,-800.75 0,-271.22 -38.76,-542.43 -116.25,-800.76l77.49 -142.05z"/>
   <polygon class="fil1" points="6952.69,101.61 9148.31,2297.23 12609.62,2297.23 11800.29,1164.47 "/>
  </g>
 </g>
</svg>
